<svg width="26" height="36" viewBox="0 0 26 36" fill="none" xmlns="http://www.w3.org/2000/svg">
<path d="M17.5177 7.58332C17.6946 7.39756 17.835 7.17697 17.9307 6.93415C18.0265 6.69134 18.0757 6.43107 18.0757 6.16822C18.0757 5.90537 18.0265 5.6451 17.9307 5.40228C17.835 5.15947 17.6946 4.93888 17.5177 4.75312L13.5541 0.586154C13.1971 0.210846 12.7129 0 12.208 0C11.7032 0 11.219 0.210846 10.862 0.586154C10.505 0.961462 10.3044 1.47049 10.3044 2.00125C10.3044 2.53202 10.505 3.04105 10.862 3.41636L11.6484 4.23975C9.3165 4.49616 7.094 5.41074 5.21619 6.88663C3.33838 8.36253 1.87517 10.3448 0.981491 12.6236C0.0878117 14.9023 -0.203069 17.3927 0.13965 19.8311C0.482368 22.2695 1.44593 24.565 2.9283 26.4747C3.24746 26.8858 3.70888 27.1468 4.21108 27.2002C4.71327 27.2537 5.2151 27.0952 5.60615 26.7597C5.99721 26.4242 6.24547 25.9391 6.29631 25.4111C6.34715 24.8832 6.19642 24.3556 5.87727 23.9445C4.86092 22.6351 4.18882 21.0686 3.92799 19.401C3.66716 17.7334 3.82671 16.023 4.39073 14.4405C4.95475 12.8579 5.90354 11.4585 7.14248 10.3817C8.38142 9.30482 9.86723 8.58824 11.4518 8.30337L10.862 8.92008C10.505 9.29539 10.3044 9.80441 10.3044 10.3352C10.3044 10.8659 10.505 11.375 10.862 11.7503C11.219 12.1256 11.7032 12.3364 12.208 12.3364C12.7129 12.3364 13.1971 12.1256 13.5541 11.7503L17.5177 7.58332ZM19.7406 8.35004C19.5585 8.53099 19.4123 8.74794 19.3103 8.98845C19.2082 9.22897 19.1523 9.4883 19.1458 9.75157C19.1394 10.0148 19.1824 10.2769 19.2725 10.5226C19.3626 10.7684 19.4979 10.993 19.6708 11.1836C20.8177 12.4537 21.6149 14.0276 21.9771 15.737C22.3394 17.4464 22.2532 19.2271 21.7276 20.889C21.2021 22.5509 20.2571 24.0315 18.9934 25.1726C17.7297 26.3138 16.1949 27.0726 14.5529 27.3681L15.1395 26.7513C15.4965 26.376 15.6971 25.867 15.6971 25.3362C15.6971 24.8055 15.4965 24.2965 15.1395 23.9211C14.7826 23.5458 14.2984 23.335 13.7935 23.335C13.2886 23.335 12.8044 23.5458 12.4474 23.9211L8.48377 28.0881C8.30688 28.2739 8.16655 28.4945 8.0708 28.7373C7.97506 28.9801 7.92578 29.2404 7.92578 29.5032C7.92578 29.7661 7.97506 30.0263 8.0708 30.2691C8.16655 30.512 8.30688 30.7326 8.48377 30.9183L12.4474 35.0853C12.8044 35.4606 13.2886 35.6714 13.7935 35.6714C14.2984 35.6714 14.7826 35.4606 15.1395 35.0853C15.4965 34.71 15.6971 34.2009 15.6971 33.6702C15.6971 33.1394 15.4965 32.6304 15.1395 32.2551L14.3532 31.4283C16.767 31.1626 19.0618 30.1919 20.978 28.626C22.8942 27.0601 24.3552 24.9616 25.1956 22.568C26.036 20.1744 26.2224 17.5813 25.7335 15.0821C25.2447 12.5829 24.1002 10.2775 22.4295 8.42671C22.0821 8.04226 21.6037 7.81857 21.0995 7.80482C20.5953 7.79106 20.1065 7.98504 19.7406 8.35004Z" fill="white"/>
</svg>
