<svg width="14" height="39" viewBox="0 0 14 39" fill="none" xmlns="http://www.w3.org/2000/svg">
<path d="M0 36.6269C0 37.9767 0.783672 39 1.75 39C3.85055 39 5.71594 37.6761 7 35.625C8.28406 37.6761 10.1495 39 12.25 39C13.2163 39 14 37.9081 14 36.6269C14 35.3456 13.2163 34.1851 12.25 34.1851C10.3195 34.1851 8.75 31.9936 8.75 29.3015V21.9761H10.5C11.4663 21.9761 12.25 20.8849 12.25 19.5343C12.25 18.1837 11.4663 17.0925 10.5 17.0925H8.75V9.76716C8.75 7.07509 10.3195 4.88359 12.25 4.88359C13.2163 4.88359 14 3.79164 14 2.44179C14 1.09193 13.2163 0 12.25 0C10.1495 0 8.28406 1.32391 7 3.37502C5.71594 1.32391 3.85055 0 1.75 0C0.783672 0 0 1.09193 0 2.44179C0 3.79164 0.783672 4.88359 1.75 4.88359C3.68047 4.88359 5.25 7.07509 5.25 9.76716V17.0925H3.5C2.53368 17.0925 1.75 18.1844 1.75 19.5343C1.75 20.8842 2.53368 21.9761 3.5 21.9761H5.25V29.3015C5.25 31.9936 3.68047 34.1851 1.75 34.1851C0.782031 34.1851 0 35.2762 0 36.6269Z" fill="white"/>
</svg>
