<svg width="539" height="348" viewBox="0 0 539 348" fill="none" xmlns="http://www.w3.org/2000/svg">
<g clip-path="url(#clip0_404_161)">
<path d="M421.435 209.02L420.302 218.905L411.478 238.171C410.45 240.425 409.417 242.675 408.38 244.92C407.911 245.971 407.244 246.94 406.41 247.781C406.369 247.838 406.314 247.886 406.25 247.921C406.185 247.955 406.113 247.975 406.038 247.98C405.789 247.98 405.699 247.676 405.68 247.448C405.539 245.015 405.22 242.592 404.727 240.197C401.969 228.631 387.251 224.393 375.706 224.655C371.088 224.72 366.538 225.682 362.358 227.475C356.33 230.138 353.981 237.541 353.661 237.815L353.405 238.767L349.272 254.478C348.401 257.981 347.736 259.832 344.191 260.766C344.075 260.801 340.543 262.517 340.428 262.517C339.059 262.868 342.808 262.114 341.324 261.887L336.608 261.198L334.605 260.777L305.38 254.466C306.51 254.641 307.666 254.836 308.848 255.05L315.631 256.527L313.84 248.68C309.175 224.252 316.905 202.09 330.074 190.057C333.542 186.893 335.264 186.081 339.308 183.973L341.58 188.884C341.58 188.884 364.822 195.206 370.299 175.806C372.513 175.981 376.769 175.952 378.964 176.389C390.405 178.578 400.738 184.142 408.368 192.223C409.04 192.924 409.699 193.648 410.351 194.383L410.697 194.769C411.1 195.23 411.529 195.703 411.932 196.176L412.22 196.549C415.566 200.532 418.643 204.696 421.435 209.02Z" fill="#353642"/>
<path d="M37.7678 218.537C41.4537 201.722 42.9767 83.7108 209.316 70.0606C308.682 61.776 254.968 36.7818 287.322 9.42898C319.676 -17.9239 442.008 27.0784 410.006 97.3609C378.004 167.643 483.648 89.6368 528.39 178.66C534.884 191.576 538.016 205.688 537.541 219.891C536.978 234.896 532.742 249.596 525.146 262.914C510.857 288.381 484.313 311.069 445.925 325.128C440.259 327.234 434.329 329.127 428.135 330.809" stroke="#CCDDE2" stroke-width="3.13371" stroke-miterlimit="10"/>
<path d="M454.749 345.703H333.805L330.209 344.722C330.209 344.722 329.479 307.257 324.654 297.67L342.572 303.228L359.926 307.782C359.926 307.782 383.802 308.238 397.451 286.005C397.451 286.005 399.748 280.698 401.809 271.129C403.588 262.827 413.046 217.054 417.013 206.831C421.294 213.656 428 225.397 431.238 232.555C434.745 240.326 437.695 248.067 440.108 255.243C444.125 267.061 447.291 279.106 449.585 291.3C453.026 309.264 454.754 327.466 454.749 345.703Z" fill="#353642"/>
<path d="M460.035 245.177C459.26 253.427 453.13 254.77 453.13 254.77C447.947 257.566 439.986 254.559 438.38 249.317C438.355 249.261 438.342 249.202 438.342 249.141C437.062 244.652 434.566 238.883 431.213 232.572C424.75 218.303 416.348 203.917 405.572 192.538C397.942 184.458 387.609 178.893 376.168 176.705C376.129 176.705 376.11 176.67 376.072 176.67C360.925 172.507 353.515 164.024 350.315 155.85V155.815C348.946 150.66 347.551 145.633 348.299 142.591C349.579 137.26 350.219 131.498 348.626 130.33C346.623 128.801 343.001 129.933 333.786 131.626C325.806 133.08 321.551 132.257 320.61 127.826C320.457 127.136 320.379 126.434 320.38 125.73C320.341 126.173 318.46 124.41 318.37 124.831C317.769 127.102 316.566 128.012 313.942 129.011C310.045 130.488 308.452 136.192 307.876 139.993C307.274 144.039 309.271 149.62 310.851 153.421C308.829 151.313 306.513 151.559 302.891 152.837C301.982 153.153 299.691 153.065 297.88 152.487C298.137 152.288 298.438 152.142 298.763 152.061C299.346 151.886 295.122 149.971 295.737 149.848C301.886 148.581 305.335 143.905 304.606 139.788C302.795 129.425 305.207 117.235 312.88 109.16C321.34 100.28 335.143 98.4352 346.827 102.499C356.004 105.681 364.681 112.208 367.861 120.913C367.859 120.932 367.861 120.951 367.868 120.97C367.874 120.988 367.885 121.004 367.9 121.018C368.304 122.125 368.614 123.259 368.828 124.41C369.999 130.885 367.497 137.447 366.108 143.846C365.609 146.152 366.876 148.669 367.145 150.496C368.687 161.472 382.573 164.572 393.56 169.231C416.655 179.046 435.513 195.825 448.196 216.23C456.598 229.723 459.606 238.936 460.035 245.177Z" fill="#3FBDF1"/>
<path d="M338.284 181.796C338.035 181.918 337.785 182.041 337.555 182.181C333.409 184.352 329.596 187.014 326.216 190.098C313.053 202.131 305.322 224.293 309.987 248.721L311.779 256.527" stroke="black" stroke-width="3.13371" stroke-miterlimit="10"/>
<path d="M454.749 345.703C454.749 327.467 453.021 309.265 449.585 291.3C447.288 279.111 444.12 267.072 440.101 255.26V255.26C437.689 248.085 434.739 240.343 431.232 232.572C427.975 225.301 424.213 218.226 419.97 211.39C415.854 204.698 411.038 198.385 405.591 192.538C397.961 184.458 387.628 178.893 376.187 176.705C373.993 176.279 371.772 175.975 369.538 175.794" stroke="black" stroke-width="3.13371" stroke-miterlimit="10"/>
<path d="M218.224 186.998L217.898 186.945C213.99 186.348 209.98 186.655 206.236 187.838C202.491 189.021 199.133 191.043 196.467 193.718L174.582 215.471L172.022 218.04C171.863 218.198 171.713 218.363 171.574 218.537" stroke="black" stroke-width="3.13371" stroke-miterlimit="10"/>
<path d="M186.618 224.218L198.629 212.056L198.649 212.044" stroke="black" stroke-width="3.13371" stroke-miterlimit="10"/>
<path d="M291.104 287.003L347.602 305.167C352.578 306.768 357.851 307.458 363.121 307.199C368.39 306.941 373.551 305.737 378.311 303.658C383.07 301.579 387.334 298.664 390.858 295.082C394.383 291.499 397.099 287.317 398.852 282.776C399.498 281.097 400.011 279.378 400.388 277.633L413.756 215.401C414.44 212.204 414.408 208.914 413.662 205.729C412.917 202.543 411.473 199.528 409.417 196.865C408.843 196.114 408.219 195.397 407.549 194.716" stroke="black" stroke-width="3.13371" stroke-miterlimit="10"/>
<path d="M253.713 284.493C246.521 288.924 241.235 302.382 238.426 311.215C237.944 312.697 236.949 313.996 235.59 314.918C234.231 315.84 232.581 316.335 230.887 316.33C229.741 316.329 228.608 316.102 227.566 315.664C225.969 314.981 224.67 313.826 223.881 312.386C223.091 310.946 222.857 309.306 223.215 307.73C227.918 286.747 244.518 245.323 301.54 254.454C302.679 254.63 303.836 254.824 305.009 255.038L311.779 256.527L330.765 260.748L335.885 261.875C337.827 262.305 339.862 262.238 341.765 261.682C341.882 261.659 341.998 261.629 342.111 261.595C343.864 261.046 345.438 260.102 346.685 258.851C347.932 257.6 348.813 256.081 349.246 254.437L353.565 238.043L353.815 237.091L359.472 215.658" stroke="black" stroke-width="3.13371" stroke-miterlimit="10"/>
<path d="M225.903 217.311H206.552C204.345 217.311 202.23 216.511 200.669 215.088C199.109 213.664 198.233 211.734 198.233 209.721V209.721C198.233 207.708 199.109 205.777 200.669 204.354C202.23 202.93 204.345 202.131 206.552 202.131H233.966" stroke="black" stroke-width="3.13371" stroke-miterlimit="10"/>
<path d="M211.05 217.305C210.775 220.399 209.483 222.688 207.576 224.27C202.661 228.357 193.657 227.89 187.393 225.093" stroke="black" stroke-width="3.13371" stroke-miterlimit="10"/>
<path d="M174.607 215.466C169.059 209.347 170.192 201.051 174.498 194.64C186.714 176.448 214.627 179.939 232.73 187.5C247.397 193.607 260.247 202.785 272.757 211.939C278.868 216.412 284.871 221.071 290.675 225.951C291.6 226.718 292.683 227.309 293.86 227.693C295.037 228.077 296.285 228.245 297.533 228.188C298.781 228.132 300.005 227.85 301.134 227.361C302.263 226.872 303.275 226.185 304.113 225.338C304.611 224.832 305.04 224.274 305.393 223.674C308.592 218.286 312.054 212.406 312.707 210.777" stroke="black" stroke-width="3.13371" stroke-miterlimit="10"/>
<path d="M207.582 224.27C207.582 224.27 236.448 238.557 257.892 259.084" stroke="black" stroke-width="3.13371" stroke-miterlimit="10"/>
<path d="M246.668 292.24C243.468 297.226 246.22 304.548 252.267 306.299C259.99 308.571 268.155 309.317 276.219 308.489C285.018 307.554 290.867 300.899 294.719 293.309C294.98 292.78 295.124 292.21 295.144 291.63C295.163 291.051 295.057 290.473 294.832 289.931C294.607 289.389 294.267 288.893 293.831 288.47C293.396 288.048 292.873 287.708 292.294 287.47C292.138 287.404 291.978 287.348 291.814 287.301C290.65 286.953 289.384 287.017 288.27 287.481C287.155 287.945 286.273 288.775 285.798 289.806C284.519 292.503 282.541 295.878 279.918 297.396" stroke="black" stroke-width="3.13371" stroke-miterlimit="10"/>
<path d="M261.738 291.301C261.738 291.301 253.835 299.054 260.068 307.263C260.342 307.607 260.665 307.917 261.028 308.185" stroke="black" stroke-width="3.13371" stroke-miterlimit="10"/>
<path d="M272.162 292.585C272.162 292.585 264.854 307.59 274.229 308.687" stroke="black" stroke-width="3.13371" stroke-miterlimit="10"/>
<path d="M531.615 345.714H79.042" stroke="black" stroke-width="3.13371" stroke-miterlimit="10"/>
<path d="M257.086 317.439H211.953C211.494 321.326 209.476 324.921 206.286 327.532C203.096 330.143 198.96 331.585 194.675 331.579H42.9768C42.9853 335.323 44.6189 338.911 47.52 341.557C50.4211 344.204 54.3535 345.695 58.4563 345.703H257.086C261.194 345.701 265.135 344.215 268.046 341.569C270.956 338.924 272.6 335.334 272.617 331.585V322.086C272.617 320.847 272.077 319.659 271.117 318.784C270.157 317.908 268.855 317.416 267.497 317.416L257.086 317.439Z" stroke="black" stroke-width="3.13371" stroke-miterlimit="10"/>
<path d="M187.392 225.093C188.721 226.772 189.678 228.672 190.208 230.686L211.587 312.038C212.06 313.804 212.184 315.633 211.952 317.439C211.494 321.326 209.475 324.922 206.286 327.532C203.096 330.143 198.96 331.585 194.674 331.58H40.1607C36.2584 331.579 32.4699 330.379 29.4062 328.174C26.3425 325.969 24.1821 322.886 23.2734 319.424L1.93224 238.078C1.31868 235.749 1.29212 233.323 1.85458 230.983C2.41704 228.643 3.55386 226.45 5.17949 224.569C6.80512 222.688 8.87721 221.168 11.2398 220.123C13.6024 219.078 16.194 218.536 18.8196 218.537H173.32C175.859 218.531 178.367 219.038 180.666 220.02C182.965 221.002 184.997 222.435 186.618 224.217L187.392 225.093Z" stroke="black" stroke-width="3.13371" stroke-miterlimit="10"/>
<path d="M376.167 176.687C376.129 176.687 376.11 176.652 376.071 176.652C360.899 172.483 353.514 163.971 350.315 155.809V155.774C347.813 149.41 347.87 143.251 348.773 139.572C349.312 137.624 349.654 135.634 349.797 133.629C350.008 127.948 345.439 129.338 332.372 131.714C326.369 132.823 322.53 130.745 320.61 127.791C320.423 127.533 320.26 127.262 320.124 126.979C319.228 125.26 318.857 123.352 319.049 121.456" stroke="black" stroke-width="3.13371" stroke-miterlimit="10"/>
<path d="M311.53 154.174C311.316 153.891 311.083 153.62 310.832 153.363C308.81 151.255 306.493 151.5 302.872 152.779C301.963 153.094 299.672 153.007 297.861 152.429C296.338 151.932 295.199 151.074 295.717 149.79C295.85 149.525 296.048 149.292 296.295 149.109C296.543 148.926 296.833 148.797 297.144 148.733C297.748 148.593 298.358 148.482 298.974 148.4C305.188 147.133 303.799 140.571 303.044 136.455C301.214 126.097 303.646 113.907 311.395 105.832C319.932 96.9522 333.895 95.1015 345.688 99.165C356.061 102.738 365.82 110.491 367.842 120.855C367.839 120.874 367.842 120.893 367.848 120.911C367.855 120.929 367.866 120.946 367.88 120.96C367.919 120.995 367.88 121.047 367.88 121.082C369.077 127.557 367.88 134.575 366.492 140.98C365.66 144.774 365.974 147.875 367.132 150.438C370.76 158.827 383.002 161.752 392.869 165.904C416.22 175.718 435.244 192.497 448.068 212.903C458.192 229.087 460.591 239.041 460.035 245.183C459.26 253.433 453.13 254.776 453.13 254.776C447.947 257.572 439.98 254.565 438.38 249.322C438.355 249.267 438.342 249.207 438.341 249.147C437.062 244.658 434.566 238.889 431.213 232.578" stroke="black" stroke-width="3.13371" stroke-miterlimit="10"/>
<path d="M319.023 121.456C319.023 124.579 317.411 127.662 313.904 128.976C309.962 130.459 308.362 134.365 307.786 138.165C306.981 143.731 308.294 149.38 311.504 154.168C314.48 158.676 319.324 163.644 326.184 163.644C338.752 163.644 344.14 158.115 344.14 158.115" stroke="black" stroke-width="3.13371" stroke-miterlimit="10"/>
<path d="M332.071 139.958C333.251 139.958 334.208 139.085 334.208 138.008C334.208 136.931 333.251 136.058 332.071 136.058C330.89 136.058 329.934 136.931 329.934 138.008C329.934 139.085 330.89 139.958 332.071 139.958Z" fill="black"/>
<path d="M313.27 141.096C314.451 141.096 315.407 140.223 315.407 139.146C315.407 138.069 314.451 137.196 313.27 137.196C312.09 137.196 311.133 138.069 311.133 139.146C311.133 140.223 312.09 141.096 313.27 141.096Z" fill="black"/>
<path d="M322.491 136.175C322.491 136.175 321.423 143.875 321.851 144.932C322.28 145.989 324.955 144.78 324.955 144.78" stroke="black" stroke-width="3.13371" stroke-miterlimit="10"/>
<path d="M326.453 151.518C331.028 153.053 335.75 151.097 337.133 147.343" stroke="black" stroke-width="3.13371" stroke-miterlimit="10"/>
<path d="M343.129 140.824C346.233 136.816 345.101 131.216 340.601 128.315C336.101 125.414 329.937 126.312 326.833 130.321C323.729 134.329 324.861 139.93 329.361 142.83C333.861 145.731 340.025 144.833 343.129 140.824Z" stroke="black" stroke-width="3.13371" stroke-miterlimit="10"/>
<path d="M318.14 141.966C321.244 137.957 320.112 132.357 315.612 129.456C311.112 126.556 304.948 127.454 301.844 131.462C298.74 135.47 299.872 141.071 304.372 143.971C308.872 146.872 315.036 145.974 318.14 141.966Z" stroke="black" stroke-width="3.13371" stroke-miterlimit="10"/>
<path d="M309.815 130.529C311.592 130.524 313.305 131.133 314.611 132.233C315.917 133.334 316.718 134.844 316.854 136.461C316.926 137.264 316.819 138.072 316.54 138.837C316.261 139.601 315.814 140.307 315.228 140.909C314.637 141.521 313.916 142.018 313.108 142.369C312.301 142.72 311.425 142.919 310.531 142.953H310.173C308.394 142.958 306.68 142.348 305.374 141.246C304.068 140.145 303.268 138.633 303.134 137.015C303.064 136.212 303.173 135.404 303.453 134.639C303.733 133.875 304.18 133.17 304.766 132.566C305.358 131.957 306.078 131.462 306.884 131.111C307.69 130.76 308.564 130.56 309.456 130.523H309.815V130.529ZM309.815 129.203H309.386C307.252 129.294 305.245 130.154 303.806 131.593C302.366 133.033 301.611 134.934 301.707 136.881C301.707 136.957 301.707 137.033 301.707 137.109C301.88 139.055 302.848 140.871 304.42 142.197C305.992 143.523 308.052 144.261 310.192 144.267H310.621C312.754 144.176 314.761 143.316 316.201 141.877C317.64 140.437 318.395 138.536 318.3 136.589C318.3 136.513 318.3 136.437 318.3 136.361C318.127 134.415 317.158 132.599 315.587 131.273C314.015 129.948 311.955 129.209 309.815 129.203Z" fill="white"/>
<path d="M325.115 136.052L319.868 136.297" stroke="black" stroke-width="3.13371" stroke-miterlimit="10"/>
<path opacity="0.53" d="M341.88 140.019C344.509 136.625 343.551 131.882 339.74 129.426C335.93 126.97 330.711 127.731 328.082 131.126C325.454 134.52 326.411 139.263 330.222 141.719C334.032 144.175 339.251 143.414 341.88 140.019Z" fill="white"/>
<path opacity="0.53" d="M316.891 141.161C319.519 137.766 318.561 133.023 314.751 130.567C310.941 128.111 305.721 128.872 303.093 132.267C300.464 135.662 301.422 140.404 305.232 142.86C309.043 145.316 314.262 144.555 316.891 141.161Z" fill="white"/>
<path d="M329.927 163.644L341.58 188.901C341.58 188.901 364.06 194.418 369.525 175.012" stroke="black" stroke-width="3.13371" stroke-miterlimit="10"/>
<path d="M108.829 294.547C117.63 292.015 122.236 282.649 119.118 273.626C116 264.603 106.338 259.341 97.5375 261.873C88.737 264.405 84.1304 273.771 87.2484 282.794C90.3665 291.817 100.029 297.079 108.829 294.547Z" fill="#D7E8F0"/>
<path d="M326.817 345.703C326.568 325.146 322.594 304.834 320.764 296.543" stroke="black" stroke-width="3.13371" stroke-miterlimit="10"/>
</g>
<defs>
<clipPath id="clip0_404_161">
<rect width="539" height="347.034" fill="white"/>
</clipPath>
</defs>
</svg>
