<svg width="27" height="28" viewBox="0 0 27 28" fill="none" xmlns="http://www.w3.org/2000/svg">
<path d="M11.1306 23.0288C8.1551 23.0288 5.37245 21.8318 3.25102 19.6657C1.12959 17.4996 0 14.5925 0 11.5144C0 8.4363 1.15714 5.5577 3.25102 3.36312C5.37245 1.19704 8.1551 0 11.1306 0C14.1061 0 16.8888 1.19704 19.0102 3.36312C21.1316 5.5292 22.2612 8.4363 22.2612 11.5144C22.2612 14.5925 21.1041 17.4711 19.0102 19.6657C16.8888 21.8318 14.1061 23.0288 11.1306 23.0288ZM11.1306 3.53413C9.06428 3.53413 7.13571 4.36066 5.67551 5.87121C4.2153 7.38177 3.41632 9.37684 3.41632 11.5144C3.41632 13.652 4.2153 15.6471 5.67551 17.1576C7.13571 18.6682 9.06428 19.4947 11.1306 19.4947C13.1969 19.4947 15.1255 18.6682 16.5857 17.1576C18.0459 15.6471 18.8449 13.652 18.8449 11.5144C18.8449 9.37684 18.0459 7.38177 16.5857 5.87121C15.1255 4.36066 13.1969 3.53413 11.1306 3.53413Z" fill="#2E4051"/>
<path d="M25.2919 27.931C24.8511 27.931 24.4103 27.76 24.0796 27.418L17.1919 20.2927C16.5307 19.6087 16.5307 18.4687 17.1919 17.7846C17.8531 17.1006 18.9552 17.1006 19.6164 17.7846L26.5041 24.9099C27.1654 25.5939 27.1654 26.734 26.5041 27.418C26.1735 27.76 25.7327 27.931 25.2919 27.931Z" fill="#2E4051"/>
</svg>
